<mxfile host="app.diagrams.net" modified="2023-09-13T15:11:41.395Z" agent="Mozilla/5.0 (Windows NT 10.0; Win64; x64) AppleWebKit/537.36 (KHTML, like Gecko) Chrome/116.0.0.0 Safari/537.36" etag="om3ZYOFrd2TOrkqLzuM4" version="21.7.5" type="device">
  <diagram name="Page-1" id="wAEnKVfklmkPBC2TPwod">
    <mxGraphModel dx="2074" dy="790" grid="1" gridSize="10" guides="1" tooltips="1" connect="1" arrows="1" fold="1" page="1" pageScale="1" pageWidth="850" pageHeight="1100" math="0" shadow="0">
      <root>
        <mxCell id="0" />
        <mxCell id="1" parent="0" />
        <mxCell id="62fFt0ZpnUzyM7lKe4DC-3" value="Cliente" style="shape=umlActor;verticalLabelPosition=bottom;verticalAlign=top;html=1;outlineConnect=0;" parent="1" vertex="1">
          <mxGeometry x="50" y="160" width="30" height="60" as="geometry" />
        </mxCell>
        <mxCell id="62fFt0ZpnUzyM7lKe4DC-7" value="" style="endArrow=none;html=1;rounded=0;entryX=0.167;entryY=0.6;entryDx=0;entryDy=0;entryPerimeter=0;exitX=1;exitY=0.3333333333333333;exitDx=0;exitDy=0;exitPerimeter=0;" parent="1" source="62fFt0ZpnUzyM7lKe4DC-3" target="62fFt0ZpnUzyM7lKe4DC-9" edge="1">
          <mxGeometry width="50" height="50" relative="1" as="geometry">
            <mxPoint x="60" y="210" as="sourcePoint" />
            <mxPoint x="240" y="60" as="targetPoint" />
          </mxGeometry>
        </mxCell>
        <mxCell id="62fFt0ZpnUzyM7lKe4DC-9" value="Cadastrar Perfil" style="ellipse;whiteSpace=wrap;html=1;" parent="1" vertex="1">
          <mxGeometry x="230" y="10" width="120" height="50" as="geometry" />
        </mxCell>
        <mxCell id="62fFt0ZpnUzyM7lKe4DC-10" value="Login&lt;br&gt;" style="ellipse;whiteSpace=wrap;html=1;" parent="1" vertex="1">
          <mxGeometry x="230" y="70" width="120" height="50" as="geometry" />
        </mxCell>
        <mxCell id="62fFt0ZpnUzyM7lKe4DC-11" value="" style="endArrow=none;html=1;rounded=0;entryX=0.008;entryY=0.616;entryDx=0;entryDy=0;exitX=1;exitY=0.3333333333333333;exitDx=0;exitDy=0;exitPerimeter=0;entryPerimeter=0;" parent="1" source="62fFt0ZpnUzyM7lKe4DC-3" target="62fFt0ZpnUzyM7lKe4DC-10" edge="1">
          <mxGeometry width="50" height="50" relative="1" as="geometry">
            <mxPoint x="190" y="210" as="sourcePoint" />
            <mxPoint x="240" y="160" as="targetPoint" />
          </mxGeometry>
        </mxCell>
        <mxCell id="62fFt0ZpnUzyM7lKe4DC-12" value="Editar Perfil" style="ellipse;whiteSpace=wrap;html=1;" parent="1" vertex="1">
          <mxGeometry x="230" y="130" width="120" height="50" as="geometry" />
        </mxCell>
        <mxCell id="62fFt0ZpnUzyM7lKe4DC-13" value="" style="endArrow=none;html=1;rounded=0;exitX=1;exitY=0.3333333333333333;exitDx=0;exitDy=0;exitPerimeter=0;entryX=0;entryY=0.5;entryDx=0;entryDy=0;" parent="1" source="62fFt0ZpnUzyM7lKe4DC-3" target="62fFt0ZpnUzyM7lKe4DC-12" edge="1">
          <mxGeometry width="50" height="50" relative="1" as="geometry">
            <mxPoint x="130" y="215" as="sourcePoint" />
            <mxPoint x="180" y="165" as="targetPoint" />
          </mxGeometry>
        </mxCell>
        <mxCell id="62fFt0ZpnUzyM7lKe4DC-14" value="" style="endArrow=none;html=1;rounded=0;exitX=1;exitY=0.3333333333333333;exitDx=0;exitDy=0;exitPerimeter=0;entryX=0;entryY=0.5;entryDx=0;entryDy=0;" parent="1" source="62fFt0ZpnUzyM7lKe4DC-3" target="62fFt0ZpnUzyM7lKe4DC-15" edge="1">
          <mxGeometry width="50" height="50" relative="1" as="geometry">
            <mxPoint x="170" y="250" as="sourcePoint" />
            <mxPoint x="220" y="220" as="targetPoint" />
          </mxGeometry>
        </mxCell>
        <mxCell id="62fFt0ZpnUzyM7lKe4DC-15" value="Visualizar vitrine de eventos" style="ellipse;whiteSpace=wrap;html=1;" parent="1" vertex="1">
          <mxGeometry x="230" y="250" width="120" height="50" as="geometry" />
        </mxCell>
        <mxCell id="62fFt0ZpnUzyM7lKe4DC-16" value="Excluir Perfil" style="ellipse;whiteSpace=wrap;html=1;" parent="1" vertex="1">
          <mxGeometry x="230" y="190" width="120" height="50" as="geometry" />
        </mxCell>
        <mxCell id="62fFt0ZpnUzyM7lKe4DC-17" value="" style="endArrow=none;html=1;rounded=0;entryX=0;entryY=0.5;entryDx=0;entryDy=0;" parent="1" target="62fFt0ZpnUzyM7lKe4DC-16" edge="1">
          <mxGeometry width="50" height="50" relative="1" as="geometry">
            <mxPoint x="80" y="180" as="sourcePoint" />
            <mxPoint x="130" y="130" as="targetPoint" />
          </mxGeometry>
        </mxCell>
        <mxCell id="62fFt0ZpnUzyM7lKe4DC-18" value="Visualizar detalhe do evento" style="ellipse;whiteSpace=wrap;html=1;" parent="1" vertex="1">
          <mxGeometry x="410" y="170" width="120" height="50" as="geometry" />
        </mxCell>
        <mxCell id="62fFt0ZpnUzyM7lKe4DC-21" value="" style="endArrow=none;dashed=1;html=1;rounded=0;entryX=0;entryY=1;entryDx=0;entryDy=0;" parent="1" target="62fFt0ZpnUzyM7lKe4DC-18" edge="1">
          <mxGeometry width="50" height="50" relative="1" as="geometry">
            <mxPoint x="350" y="270" as="sourcePoint" />
            <mxPoint x="400" y="220" as="targetPoint" />
          </mxGeometry>
        </mxCell>
        <mxCell id="62fFt0ZpnUzyM7lKe4DC-23" value="&amp;lt;&amp;lt;&amp;nbsp;extend&amp;nbsp; &amp;gt;&amp;gt;" style="edgeLabel;html=1;align=center;verticalAlign=middle;resizable=0;points=[];" parent="62fFt0ZpnUzyM7lKe4DC-21" vertex="1" connectable="0">
          <mxGeometry x="-0.1188" y="3" relative="1" as="geometry">
            <mxPoint x="10" y="-1" as="offset" />
          </mxGeometry>
        </mxCell>
        <mxCell id="62fFt0ZpnUzyM7lKe4DC-24" value="Adicionar no carrinho" style="ellipse;whiteSpace=wrap;html=1;" parent="1" vertex="1">
          <mxGeometry x="610" y="60" width="120" height="50" as="geometry" />
        </mxCell>
        <mxCell id="62fFt0ZpnUzyM7lKe4DC-25" value="" style="endArrow=none;dashed=1;html=1;rounded=0;entryX=0.017;entryY=0.719;entryDx=0;entryDy=0;entryPerimeter=0;exitX=0.822;exitY=0.064;exitDx=0;exitDy=0;exitPerimeter=0;" parent="1" source="62fFt0ZpnUzyM7lKe4DC-18" target="62fFt0ZpnUzyM7lKe4DC-24" edge="1">
          <mxGeometry width="50" height="50" relative="1" as="geometry">
            <mxPoint x="599.9999999999998" y="63.80000000000004" as="sourcePoint" />
            <mxPoint x="666.8799999999999" y="9.999999999999972" as="targetPoint" />
          </mxGeometry>
        </mxCell>
        <mxCell id="62fFt0ZpnUzyM7lKe4DC-26" value="&amp;lt;&amp;lt;&amp;nbsp; includ&amp;nbsp; &amp;gt;&amp;gt;" style="edgeLabel;html=1;align=center;verticalAlign=middle;resizable=0;points=[];" parent="62fFt0ZpnUzyM7lKe4DC-25" vertex="1" connectable="0">
          <mxGeometry x="-0.1188" y="3" relative="1" as="geometry">
            <mxPoint x="15" y="-6" as="offset" />
          </mxGeometry>
        </mxCell>
        <mxCell id="62fFt0ZpnUzyM7lKe4DC-27" value="Favoritar Evento" style="ellipse;whiteSpace=wrap;html=1;" parent="1" vertex="1">
          <mxGeometry x="610" y="130" width="120" height="50" as="geometry" />
        </mxCell>
        <mxCell id="62fFt0ZpnUzyM7lKe4DC-30" value="" style="endArrow=none;dashed=1;html=1;rounded=0;exitX=1.023;exitY=0.402;exitDx=0;exitDy=0;exitPerimeter=0;" parent="1" source="62fFt0ZpnUzyM7lKe4DC-18" target="62fFt0ZpnUzyM7lKe4DC-27" edge="1">
          <mxGeometry width="50" height="50" relative="1" as="geometry">
            <mxPoint x="560" y="130" as="sourcePoint" />
            <mxPoint x="613" y="73" as="targetPoint" />
          </mxGeometry>
        </mxCell>
        <mxCell id="62fFt0ZpnUzyM7lKe4DC-31" value="&amp;lt;&amp;lt;&amp;nbsp; includ&amp;nbsp; &amp;gt;&amp;gt;" style="edgeLabel;html=1;align=center;verticalAlign=middle;resizable=0;points=[];" parent="62fFt0ZpnUzyM7lKe4DC-30" vertex="1" connectable="0">
          <mxGeometry x="-0.1188" y="3" relative="1" as="geometry">
            <mxPoint x="3" y="2" as="offset" />
          </mxGeometry>
        </mxCell>
        <mxCell id="62fFt0ZpnUzyM7lKe4DC-34" value="Compra ingresso" style="ellipse;whiteSpace=wrap;html=1;" parent="1" vertex="1">
          <mxGeometry x="230" y="310" width="120" height="50" as="geometry" />
        </mxCell>
        <mxCell id="62fFt0ZpnUzyM7lKe4DC-35" value="" style="endArrow=none;html=1;rounded=0;exitX=1;exitY=0.3333333333333333;exitDx=0;exitDy=0;exitPerimeter=0;entryX=0;entryY=0.5;entryDx=0;entryDy=0;" parent="1" source="62fFt0ZpnUzyM7lKe4DC-3" target="62fFt0ZpnUzyM7lKe4DC-34" edge="1">
          <mxGeometry width="50" height="50" relative="1" as="geometry">
            <mxPoint x="70" y="250" as="sourcePoint" />
            <mxPoint x="220" y="345" as="targetPoint" />
          </mxGeometry>
        </mxCell>
        <mxCell id="sTNewUZJHm5oa92gSU4E-24" value="Promotor de Eventos" style="shape=umlActor;verticalLabelPosition=bottom;verticalAlign=top;html=1;outlineConnect=0;" vertex="1" parent="1">
          <mxGeometry x="50" y="611" width="30" height="60" as="geometry" />
        </mxCell>
        <mxCell id="sTNewUZJHm5oa92gSU4E-25" value="" style="endArrow=none;html=1;rounded=0;entryX=0.167;entryY=0.6;entryDx=0;entryDy=0;entryPerimeter=0;exitX=1;exitY=0.3333333333333333;exitDx=0;exitDy=0;exitPerimeter=0;" edge="1" parent="1" source="sTNewUZJHm5oa92gSU4E-24" target="sTNewUZJHm5oa92gSU4E-26">
          <mxGeometry width="50" height="50" relative="1" as="geometry">
            <mxPoint x="80" y="591" as="sourcePoint" />
            <mxPoint x="240" y="471" as="targetPoint" />
          </mxGeometry>
        </mxCell>
        <mxCell id="sTNewUZJHm5oa92gSU4E-26" value="Cadastrar Perfil" style="ellipse;whiteSpace=wrap;html=1;" vertex="1" parent="1">
          <mxGeometry x="230" y="421" width="120" height="50" as="geometry" />
        </mxCell>
        <mxCell id="sTNewUZJHm5oa92gSU4E-27" value="Login&lt;br&gt;" style="ellipse;whiteSpace=wrap;html=1;" vertex="1" parent="1">
          <mxGeometry x="230" y="481" width="120" height="50" as="geometry" />
        </mxCell>
        <mxCell id="sTNewUZJHm5oa92gSU4E-28" value="" style="endArrow=none;html=1;rounded=0;entryX=0.008;entryY=0.616;entryDx=0;entryDy=0;exitX=1;exitY=0.3333333333333333;exitDx=0;exitDy=0;exitPerimeter=0;entryPerimeter=0;" edge="1" parent="1" source="sTNewUZJHm5oa92gSU4E-24" target="sTNewUZJHm5oa92gSU4E-27">
          <mxGeometry width="50" height="50" relative="1" as="geometry">
            <mxPoint x="190" y="621" as="sourcePoint" />
            <mxPoint x="240" y="571" as="targetPoint" />
          </mxGeometry>
        </mxCell>
        <mxCell id="sTNewUZJHm5oa92gSU4E-29" value="Editar Perfil" style="ellipse;whiteSpace=wrap;html=1;" vertex="1" parent="1">
          <mxGeometry x="230" y="541" width="120" height="50" as="geometry" />
        </mxCell>
        <mxCell id="sTNewUZJHm5oa92gSU4E-30" value="" style="endArrow=none;html=1;rounded=0;exitX=1;exitY=0.3333333333333333;exitDx=0;exitDy=0;exitPerimeter=0;entryX=0;entryY=0.5;entryDx=0;entryDy=0;" edge="1" parent="1" source="sTNewUZJHm5oa92gSU4E-24" target="sTNewUZJHm5oa92gSU4E-29">
          <mxGeometry width="50" height="50" relative="1" as="geometry">
            <mxPoint x="130" y="626" as="sourcePoint" />
            <mxPoint x="180" y="576" as="targetPoint" />
          </mxGeometry>
        </mxCell>
        <mxCell id="sTNewUZJHm5oa92gSU4E-31" value="" style="endArrow=none;html=1;rounded=0;exitX=1;exitY=0.3333333333333333;exitDx=0;exitDy=0;exitPerimeter=0;entryX=0;entryY=0.5;entryDx=0;entryDy=0;" edge="1" parent="1" source="sTNewUZJHm5oa92gSU4E-24" target="sTNewUZJHm5oa92gSU4E-32">
          <mxGeometry width="50" height="50" relative="1" as="geometry">
            <mxPoint x="170" y="661" as="sourcePoint" />
            <mxPoint x="220" y="631" as="targetPoint" />
          </mxGeometry>
        </mxCell>
        <mxCell id="sTNewUZJHm5oa92gSU4E-32" value="Visualizar Vitrine de Eventos" style="ellipse;whiteSpace=wrap;html=1;" vertex="1" parent="1">
          <mxGeometry x="230" y="661" width="120" height="50" as="geometry" />
        </mxCell>
        <mxCell id="sTNewUZJHm5oa92gSU4E-33" value="Excluir Perfil" style="ellipse;whiteSpace=wrap;html=1;" vertex="1" parent="1">
          <mxGeometry x="230" y="601" width="120" height="50" as="geometry" />
        </mxCell>
        <mxCell id="sTNewUZJHm5oa92gSU4E-34" value="" style="endArrow=none;html=1;rounded=0;exitX=1;exitY=0.3333333333333333;exitDx=0;exitDy=0;exitPerimeter=0;entryX=0;entryY=0.5;entryDx=0;entryDy=0;" edge="1" parent="1" target="sTNewUZJHm5oa92gSU4E-33" source="sTNewUZJHm5oa92gSU4E-24">
          <mxGeometry width="50" height="50" relative="1" as="geometry">
            <mxPoint x="80" y="591" as="sourcePoint" />
            <mxPoint x="240" y="631" as="targetPoint" />
          </mxGeometry>
        </mxCell>
        <mxCell id="sTNewUZJHm5oa92gSU4E-44" value="Cadastrar Evento" style="ellipse;whiteSpace=wrap;html=1;" vertex="1" parent="1">
          <mxGeometry x="230" y="721" width="120" height="50" as="geometry" />
        </mxCell>
        <mxCell id="sTNewUZJHm5oa92gSU4E-45" value="" style="endArrow=none;html=1;rounded=0;exitX=1;exitY=0.3333333333333333;exitDx=0;exitDy=0;exitPerimeter=0;entryX=0;entryY=0.5;entryDx=0;entryDy=0;" edge="1" parent="1" source="sTNewUZJHm5oa92gSU4E-24" target="sTNewUZJHm5oa92gSU4E-44">
          <mxGeometry width="50" height="50" relative="1" as="geometry">
            <mxPoint x="70" y="661" as="sourcePoint" />
            <mxPoint x="220" y="756" as="targetPoint" />
          </mxGeometry>
        </mxCell>
        <mxCell id="sTNewUZJHm5oa92gSU4E-46" value="Editar Evento" style="ellipse;whiteSpace=wrap;html=1;" vertex="1" parent="1">
          <mxGeometry x="230" y="781" width="120" height="50" as="geometry" />
        </mxCell>
        <mxCell id="sTNewUZJHm5oa92gSU4E-47" value="Cancelar Evento" style="ellipse;whiteSpace=wrap;html=1;" vertex="1" parent="1">
          <mxGeometry x="230" y="841" width="120" height="50" as="geometry" />
        </mxCell>
        <mxCell id="sTNewUZJHm5oa92gSU4E-48" value="" style="endArrow=none;html=1;rounded=0;entryX=0;entryY=0.5;entryDx=0;entryDy=0;exitX=1;exitY=0.3333333333333333;exitDx=0;exitDy=0;exitPerimeter=0;" edge="1" parent="1" source="sTNewUZJHm5oa92gSU4E-24" target="sTNewUZJHm5oa92gSU4E-46">
          <mxGeometry width="50" height="50" relative="1" as="geometry">
            <mxPoint x="80" y="591" as="sourcePoint" />
            <mxPoint x="240" y="756" as="targetPoint" />
          </mxGeometry>
        </mxCell>
        <mxCell id="sTNewUZJHm5oa92gSU4E-49" value="" style="endArrow=none;html=1;rounded=0;entryX=0;entryY=0.5;entryDx=0;entryDy=0;exitX=1;exitY=0.3333333333333333;exitDx=0;exitDy=0;exitPerimeter=0;" edge="1" parent="1" source="sTNewUZJHm5oa92gSU4E-24" target="sTNewUZJHm5oa92gSU4E-47">
          <mxGeometry width="50" height="50" relative="1" as="geometry">
            <mxPoint x="90" y="601" as="sourcePoint" />
            <mxPoint x="240" y="816" as="targetPoint" />
          </mxGeometry>
        </mxCell>
        <mxCell id="sTNewUZJHm5oa92gSU4E-50" value="Cliente" style="shape=umlActor;verticalLabelPosition=bottom;verticalAlign=top;html=1;outlineConnect=0;" vertex="1" parent="1">
          <mxGeometry x="50" y="1131" width="30" height="60" as="geometry" />
        </mxCell>
        <mxCell id="sTNewUZJHm5oa92gSU4E-51" value="" style="endArrow=none;html=1;rounded=0;entryX=0.167;entryY=0.6;entryDx=0;entryDy=0;entryPerimeter=0;exitX=1;exitY=0.3333333333333333;exitDx=0;exitDy=0;exitPerimeter=0;" edge="1" parent="1" source="sTNewUZJHm5oa92gSU4E-50" target="sTNewUZJHm5oa92gSU4E-52">
          <mxGeometry width="50" height="50" relative="1" as="geometry">
            <mxPoint x="60" y="1151" as="sourcePoint" />
            <mxPoint x="240" y="1001" as="targetPoint" />
          </mxGeometry>
        </mxCell>
        <mxCell id="sTNewUZJHm5oa92gSU4E-52" value="Cadastrar Perfil" style="ellipse;whiteSpace=wrap;html=1;" vertex="1" parent="1">
          <mxGeometry x="230" y="951" width="120" height="50" as="geometry" />
        </mxCell>
        <mxCell id="sTNewUZJHm5oa92gSU4E-53" value="Login&lt;br&gt;" style="ellipse;whiteSpace=wrap;html=1;" vertex="1" parent="1">
          <mxGeometry x="230" y="1011" width="120" height="50" as="geometry" />
        </mxCell>
        <mxCell id="sTNewUZJHm5oa92gSU4E-54" value="" style="endArrow=none;html=1;rounded=0;entryX=0.008;entryY=0.616;entryDx=0;entryDy=0;exitX=1;exitY=0.3333333333333333;exitDx=0;exitDy=0;exitPerimeter=0;entryPerimeter=0;" edge="1" parent="1" source="sTNewUZJHm5oa92gSU4E-50" target="sTNewUZJHm5oa92gSU4E-53">
          <mxGeometry width="50" height="50" relative="1" as="geometry">
            <mxPoint x="190" y="1151" as="sourcePoint" />
            <mxPoint x="240" y="1101" as="targetPoint" />
          </mxGeometry>
        </mxCell>
        <mxCell id="sTNewUZJHm5oa92gSU4E-55" value="Editar Perfil" style="ellipse;whiteSpace=wrap;html=1;" vertex="1" parent="1">
          <mxGeometry x="230" y="1071" width="120" height="50" as="geometry" />
        </mxCell>
        <mxCell id="sTNewUZJHm5oa92gSU4E-56" value="" style="endArrow=none;html=1;rounded=0;exitX=1;exitY=0.3333333333333333;exitDx=0;exitDy=0;exitPerimeter=0;entryX=0;entryY=0.5;entryDx=0;entryDy=0;" edge="1" parent="1" source="sTNewUZJHm5oa92gSU4E-50" target="sTNewUZJHm5oa92gSU4E-55">
          <mxGeometry width="50" height="50" relative="1" as="geometry">
            <mxPoint x="130" y="1156" as="sourcePoint" />
            <mxPoint x="180" y="1106" as="targetPoint" />
          </mxGeometry>
        </mxCell>
        <mxCell id="sTNewUZJHm5oa92gSU4E-57" value="" style="endArrow=none;html=1;rounded=0;exitX=1;exitY=0.3333333333333333;exitDx=0;exitDy=0;exitPerimeter=0;entryX=0;entryY=0.5;entryDx=0;entryDy=0;" edge="1" parent="1" source="sTNewUZJHm5oa92gSU4E-50" target="sTNewUZJHm5oa92gSU4E-58">
          <mxGeometry width="50" height="50" relative="1" as="geometry">
            <mxPoint x="170" y="1191" as="sourcePoint" />
            <mxPoint x="220" y="1161" as="targetPoint" />
          </mxGeometry>
        </mxCell>
        <mxCell id="sTNewUZJHm5oa92gSU4E-58" value="Visualizar Usuários" style="ellipse;whiteSpace=wrap;html=1;" vertex="1" parent="1">
          <mxGeometry x="230" y="1191" width="120" height="50" as="geometry" />
        </mxCell>
        <mxCell id="sTNewUZJHm5oa92gSU4E-59" value="Excluir Perfil" style="ellipse;whiteSpace=wrap;html=1;" vertex="1" parent="1">
          <mxGeometry x="230" y="1131" width="120" height="50" as="geometry" />
        </mxCell>
        <mxCell id="sTNewUZJHm5oa92gSU4E-60" value="" style="endArrow=none;html=1;rounded=0;entryX=0;entryY=0.5;entryDx=0;entryDy=0;exitX=1;exitY=0.3333333333333333;exitDx=0;exitDy=0;exitPerimeter=0;" edge="1" parent="1" target="sTNewUZJHm5oa92gSU4E-59" source="sTNewUZJHm5oa92gSU4E-50">
          <mxGeometry width="50" height="50" relative="1" as="geometry">
            <mxPoint x="80" y="1121" as="sourcePoint" />
            <mxPoint x="130" y="1071" as="targetPoint" />
          </mxGeometry>
        </mxCell>
        <mxCell id="sTNewUZJHm5oa92gSU4E-70" value="Cadastrar Novo Usuário" style="ellipse;whiteSpace=wrap;html=1;" vertex="1" parent="1">
          <mxGeometry x="230" y="1251" width="120" height="50" as="geometry" />
        </mxCell>
        <mxCell id="sTNewUZJHm5oa92gSU4E-71" value="" style="endArrow=none;html=1;rounded=0;exitX=1;exitY=0.3333333333333333;exitDx=0;exitDy=0;exitPerimeter=0;entryX=0;entryY=0.5;entryDx=0;entryDy=0;" edge="1" parent="1" source="sTNewUZJHm5oa92gSU4E-50" target="sTNewUZJHm5oa92gSU4E-70">
          <mxGeometry width="50" height="50" relative="1" as="geometry">
            <mxPoint x="70" y="1191" as="sourcePoint" />
            <mxPoint x="220" y="1286" as="targetPoint" />
          </mxGeometry>
        </mxCell>
        <mxCell id="sTNewUZJHm5oa92gSU4E-73" value="Redefinir Senha de Usuário" style="ellipse;whiteSpace=wrap;html=1;" vertex="1" parent="1">
          <mxGeometry x="230" y="1311" width="120" height="50" as="geometry" />
        </mxCell>
        <mxCell id="sTNewUZJHm5oa92gSU4E-74" value="Bloquear Usuário" style="ellipse;whiteSpace=wrap;html=1;" vertex="1" parent="1">
          <mxGeometry x="230" y="1371" width="120" height="50" as="geometry" />
        </mxCell>
        <mxCell id="sTNewUZJHm5oa92gSU4E-75" value="" style="endArrow=none;html=1;rounded=0;exitX=1;exitY=0.3333333333333333;exitDx=0;exitDy=0;exitPerimeter=0;entryX=0;entryY=0.5;entryDx=0;entryDy=0;" edge="1" parent="1" source="sTNewUZJHm5oa92gSU4E-50" target="sTNewUZJHm5oa92gSU4E-73">
          <mxGeometry width="50" height="50" relative="1" as="geometry">
            <mxPoint x="90" y="1131" as="sourcePoint" />
            <mxPoint x="240" y="1286" as="targetPoint" />
          </mxGeometry>
        </mxCell>
        <mxCell id="sTNewUZJHm5oa92gSU4E-76" value="" style="endArrow=none;html=1;rounded=0;exitX=1;exitY=0.3333333333333333;exitDx=0;exitDy=0;exitPerimeter=0;entryX=0;entryY=0.5;entryDx=0;entryDy=0;" edge="1" parent="1" source="sTNewUZJHm5oa92gSU4E-50" target="sTNewUZJHm5oa92gSU4E-74">
          <mxGeometry width="50" height="50" relative="1" as="geometry">
            <mxPoint x="90" y="1131" as="sourcePoint" />
            <mxPoint x="240" y="1346" as="targetPoint" />
          </mxGeometry>
        </mxCell>
      </root>
    </mxGraphModel>
  </diagram>
</mxfile>
